<svg width="76" height="76" viewBox="0 0 76 76" fill="none" xmlns="http://www.w3.org/2000/svg">
<path d="M38 76C58.9868 76 76 58.9868 76 38C76 17.0132 58.9868 0 38 0C17.0132 0 0 17.0132 0 38C0 58.9868 17.0132 76 38 76Z" fill="#BEEA9B"/>
<path opacity="0.71" d="M65.5928 31.9987C65.5928 31.9987 65.5278 30.7122 65.1678 30.0498C64.8079 29.3873 63.432 30.4748 63.5609 31.9374C63.5609 31.9374 63.5073 34.7543 63.238 35.2559C62.9023 35.8612 62.5275 36.444 62.1161 37.0006L62.0944 36.5909L61.5418 31.4856C60.8832 29.7307 59.8749 30.5105 59.7473 31.5775C59.589 32.9011 59.6924 36.9789 59.6924 36.9789C59.6924 36.9789 55.649 43.7268 55.1768 44.0778C55.0568 44.1672 54.9713 44.3905 54.9126 44.6752L54.1289 47.1806L54.7747 46.8666V46.8768L56.8692 45.9208L62.0817 39.566V39.261L64.5514 36.1034L65.5928 31.9987Z" fill="#03301F"/>
<path opacity="0.71" d="M57.2088 37.6745C57.3033 35.6566 56.9714 32.9738 56.9714 32.9738C56.2133 32.1889 55.5675 33.5009 55.4501 33.9349C54.9638 35.663 54.4839 41.0516 54.4839 41.0516C54.4839 41.0516 57.1144 39.6936 57.2088 37.6745Z" fill="#03301F"/>
<path opacity="0.71" d="M10.7495 31.4857C10.7495 31.4857 10.8606 30.2017 11.2447 29.5533C11.6289 28.905 12.9678 30.0409 12.7865 31.4985C12.7865 31.4985 12.7393 34.3153 12.9907 34.8284C13.3059 35.4462 13.6606 36.0431 14.0526 36.6152L14.0884 36.2068L14.8261 31.1168C15.5485 29.3861 16.53 30.2017 16.6206 31.2725C16.7316 32.6012 16.4815 36.6727 16.4815 36.6727C16.4815 36.6727 20.29 43.5648 20.7521 43.9298C20.8682 44.023 20.9448 44.2502 20.9946 44.5361L21.6902 47.0671C21.6902 47.0671 21.4221 46.9292 21.052 46.7339V46.7441L18.9882 45.7129L13.9952 39.1832V38.8782L11.6353 35.6299L10.7495 31.4857Z" fill="#03301F"/>
<path opacity="0.71" d="M18.9433 37.4589C18.9203 35.4397 19.3491 32.7709 19.3491 32.7709C20.1354 32.0141 20.7327 33.3478 20.8386 33.7856C21.2636 35.5303 21.5521 40.933 21.5521 40.933C21.5521 40.933 18.9662 39.478 18.9433 37.4589Z" fill="#03301F"/>
<path d="M46.1803 47.3439C46.2568 47.1372 47.3953 44.2067 50.5453 43.0657C50.5453 43.0657 52.9703 42.097 54.6627 40.3714C55.9569 39.0504 56.5491 37.5635 59.292 36.1455C59.292 36.1455 61.1911 35.2201 61.1745 37.4741C61.1592 39.4167 56.6806 42.7555 56.1011 43.9145C55.5217 45.0734 55.7769 44.5794 55.5778 44.947L56.5376 43.8098C56.5376 43.8098 58.9435 41.783 60.6117 40.4046C60.6117 40.4046 62.6908 37.1844 63.4349 36.7262C63.4349 36.7262 63.9607 34.8794 64.604 33.7549C64.6844 33.6132 65.3698 29.2878 67.6276 30.1544C67.6276 30.1544 66.6359 36.7555 65.4694 38.9253C64.3028 41.0951 61.3009 44.8296 60.5517 45.5545C59.8025 46.2795 52.7227 51.2354 51.2345 53.4371C49.32 56.2629 48.9933 57.6783 48.6397 60.3612C48.3849 62.4158 48.5367 64.5004 49.0865 66.4965C49.0865 66.4965 43.4872 54.6126 46.1803 47.3439Z" fill="#161614"/>
<path d="M29.6439 47.5198C29.5737 47.3105 28.5374 44.3418 25.4244 43.0871C25.4244 43.0871 23.0287 42.0316 21.3976 40.246C20.1481 38.8791 19.6107 37.3692 16.9126 35.8568C16.9126 35.8568 15.0428 34.8625 14.979 37.1165C14.9241 39.0578 19.2904 42.5575 19.829 43.7355C20.3676 44.9136 20.2795 44.7106 20.4672 45.0833L19.2929 43.7291C19.2929 43.7291 19.1398 43.4356 15.2151 40.0699C15.2151 40.0699 13.2368 36.828 12.508 36.3443C12.508 36.3443 12.2374 34.4298 11.6324 33.2811C11.5571 33.1369 11.0683 28.7859 8.78369 29.5696C8.78369 29.5696 9.54055 36.2065 10.6305 38.4132C11.7205 40.62 14.5948 44.7119 15.3185 45.4636C16.0421 46.2154 23.2776 51.1369 24.6688 53.9257C26.1723 56.9391 26.2719 57.8606 26.5067 60.4758C26.6812 62.5193 26.5016 64.5776 25.9758 66.56C25.9758 66.56 32.0804 54.8816 29.6439 47.5198Z" fill="#161614"/>
<path d="M29.5127 28.1404C31.1523 28.1404 32.4814 26.8113 32.4814 25.1717C32.4814 23.5321 31.1523 22.2029 29.5127 22.2029C27.8731 22.2029 26.5439 23.5321 26.5439 25.1717C26.5439 26.8113 27.8731 28.1404 29.5127 28.1404Z" fill="#161614"/>
<path d="M30.8314 19.8163C32.2306 19.8163 33.3649 18.682 33.3649 17.2828C33.3649 15.8836 32.2306 14.7493 30.8314 14.7493C29.4321 14.7493 28.2979 15.8836 28.2979 17.2828C28.2979 18.682 29.4321 19.8163 30.8314 19.8163Z" fill="#161614"/>
<path d="M35.1742 12.5833C36.0419 12.5833 36.7453 11.8799 36.7453 11.0121C36.7453 10.1444 36.0419 9.44098 35.1742 9.44098C34.3065 9.44098 33.603 10.1444 33.603 11.0121C33.603 11.8799 34.3065 12.5833 35.1742 12.5833Z" fill="#161614"/>
<path d="M32.469 37.0875C34.3229 37.0875 35.8258 35.5846 35.8258 33.7308C35.8258 31.8769 34.3229 30.374 32.469 30.374C30.6152 30.374 29.1123 31.8769 29.1123 33.7308C29.1123 35.5846 30.6152 37.0875 32.469 37.0875Z" fill="#161614"/>
<path d="M35.9085 44.8414C37.7624 44.8414 39.2652 43.3385 39.2652 41.4847C39.2652 39.6308 37.7624 38.1279 35.9085 38.1279C34.0546 38.1279 32.5518 39.6308 32.5518 41.4847C32.5518 43.3385 34.0546 44.8414 35.9085 44.8414Z" fill="#161614"/>
<path d="M38.7768 52.772C40.4164 52.772 41.7456 51.4429 41.7456 49.8033C41.7456 48.1637 40.4164 46.8346 38.7768 46.8346C37.1373 46.8346 35.8081 48.1637 35.8081 49.8033C35.8081 51.4429 37.1373 52.772 38.7768 52.772Z" fill="#161614"/>
<path d="M37.1732 60.4927C38.5724 60.4927 39.7067 59.3584 39.7067 57.9592C39.7067 56.5599 38.5724 55.4257 37.1732 55.4257C35.7739 55.4257 34.6396 56.5599 34.6396 57.9592C34.6396 59.3584 35.7739 60.4927 37.1732 60.4927Z" fill="#161614"/>
<path d="M34.3788 66.1085C35.2465 66.1085 35.9499 65.4051 35.9499 64.5373C35.9499 63.6696 35.2465 62.9662 34.3788 62.9662C33.511 62.9662 32.8076 63.6696 32.8076 64.5373C32.8076 65.4051 33.511 66.1085 34.3788 66.1085Z" fill="#161614"/>
</svg>
